<?xml version="1.0" encoding="utf-8"?>
<!-- Generator: Adobe Illustrator 13.0.1, SVG Export Plug-In . SVG Version: 6.00 Build 14948)  -->
<!DOCTYPE svg PUBLIC "-//W3C//DTD SVG 1.1//EN" "http://www.w3.org/Graphics/SVG/1.1/DTD/svg11.dtd">
<svg version="1.1" id="Layer_2" xmlns="http://www.w3.org/2000/svg" xmlns:xlink="http://www.w3.org/1999/xlink" x="0px" y="0px"
   width="134.35px" height="238.242px" viewBox="0 0 134.35 238.242" enable-background="new 0 0 134.35 238.242" preserveAspectRatio="xMinYMin"
   xml:space="preserve">
<g>
	<g>
		<path fill="#005ABB" d="M1.134,69.09H4.09v9.064c0,1.026,0.279,1.828,0.837,2.404c0.549,0.578,1.25,0.866,2.102,0.866
			s1.547-0.288,2.086-0.866c0.549-0.576,0.823-1.378,0.823-2.404V69.09h2.956v15.205H9.937v-1.627H9.881
			c-0.974,1.201-2.245,1.803-3.813,1.803c-1.219-0.02-2.32-0.479-3.303-1.375c-1.068-0.877-1.612-2.174-1.631-3.889V69.09z"/>
		<path fill="#FF5A00" d="M17.247,69.09h2.956v1.581c0.983-1.132,2.25-1.724,3.801-1.772c1.806,0.049,3.124,0.713,3.956,1.993
			c0.406,0.479,0.684,1.107,0.835,1.889c0.142,0.771,0.212,2.081,0.212,3.927c0,1.797-0.07,3.086-0.213,3.867
			c-0.15,0.781-0.43,1.42-0.836,1.918c-0.406,0.586-0.941,1.055-1.602,1.406c-0.652,0.361-1.438,0.553-2.354,0.572
			c-0.756,0-1.433-0.17-2.027-0.51c-0.643-0.312-1.233-0.739-1.772-1.283v7.77h-2.956V69.09z M23.112,81.425
			c0.701,0,1.254-0.138,1.661-0.411c0.407-0.285,0.695-0.646,0.866-1.088c0.188-0.461,0.316-0.971,0.383-1.529
			c0.019-0.549,0.028-1.111,0.028-1.689c0-0.607-0.01-1.201-0.028-1.779c-0.066-0.577-0.194-1.087-0.383-1.528
			c-0.171-0.461-0.459-0.823-0.866-1.088c-0.407-0.244-0.96-0.367-1.661-0.367c-0.662,0-1.188,0.143-1.574,0.426
			c-0.408,0.285-0.706,0.657-0.895,1.117c-0.18,0.461-0.299,0.961-0.355,1.499c-0.057,0.569-0.085,1.143-0.085,1.721
			c0,0.539,0.028,1.078,0.085,1.616c0.057,0.569,0.176,1.083,0.355,1.544c0.188,0.46,0.486,0.832,0.895,1.117
			C21.925,81.278,22.45,81.425,23.112,81.425z"/>
		<path fill="#FF5A00" d="M32.818,62.938h2.956v17.446c0,0.694,0.37,1.041,1.109,1.041h1.025v2.87H36.59
			c-1.077,0-1.966-0.277-2.665-0.832c-0.738-0.564-1.106-1.513-1.106-2.846V62.938z"/>
		<path fill="#FF5A00" d="M48.287,82.948H48.23c-0.274,0.518-0.7,0.898-1.276,1.143c-0.567,0.254-1.352,0.381-2.354,0.381
			c-1.646-0.02-2.912-0.469-3.801-1.348c-0.937-0.859-1.404-1.958-1.404-3.296c0-1.278,0.406-2.339,1.219-3.179
			c0.813-0.858,2.005-1.298,3.574-1.317h4.099v-1.604c0.02-1.345-0.987-1.997-3.022-1.958c-0.737,0-1.318,0.078-1.744,0.236
			c-0.445,0.186-0.795,0.5-1.051,0.941l-2.326-1.833c1.125-1.516,2.783-2.254,4.976-2.215c1.853-0.02,3.331,0.342,4.437,1.084
			c1.106,0.763,1.668,2.071,1.688,3.927v10.386h-2.956V82.948z M48.287,77.848h-3.554c-1.725,0.039-2.577,0.65-2.558,1.832
			c0,0.519,0.223,0.958,0.668,1.32c0.427,0.4,1.132,0.601,2.118,0.601c1.24,0.02,2.117-0.132,2.629-0.454
			c0.464-0.322,0.696-1.056,0.696-2.199V77.848z"/>
		<path fill="#FF5A00" d="M53.253,69.09h3.133l3.488,10.65h0.057l3.473-10.65h3.147l-6.337,18.354
			c-0.406,1.143-0.969,1.934-1.688,2.373c-0.728,0.42-1.55,0.631-2.467,0.631h-0.979v-2.87h0.865c0.388,0,0.746-0.108,1.078-0.323
			c0.33-0.225,0.562-0.557,0.694-0.998l0.808-2.553L53.253,69.09z"/>
		<path fill="#005ABB" d="M76.428,82.948h-0.057c-0.275,0.518-0.699,0.898-1.277,1.143c-0.566,0.254-1.353,0.381-2.354,0.381
			c-1.645-0.02-2.912-0.469-3.801-1.348c-0.936-0.859-1.403-1.958-1.403-3.296c0-1.278,0.406-2.339,1.22-3.179
			c0.812-0.858,2.004-1.298,3.573-1.317h4.1v-1.604c0.02-1.345-0.988-1.997-3.022-1.958c-0.738,0-1.32,0.078-1.746,0.236
			c-0.444,0.186-0.794,0.5-1.049,0.941l-2.327-1.833c1.124-1.516,2.783-2.254,4.976-2.215c1.853-0.02,3.333,0.342,4.438,1.084
			c1.105,0.763,1.668,2.071,1.686,3.927v10.386h-2.955V82.948z M76.428,77.848h-3.554c-1.726,0.039-2.578,0.65-2.559,1.832
			c0,0.519,0.223,0.958,0.668,1.32c0.426,0.4,1.133,0.601,2.117,0.601c1.241,0.02,2.118-0.132,2.63-0.454
			c0.465-0.322,0.697-1.056,0.697-2.199V77.848z"/>
		<path fill="#005ABB" d="M91.969,82.708c-0.973,1.137-2.24,1.725-3.799,1.764c-0.955-0.02-1.748-0.23-2.381-0.631
			c-0.662-0.381-1.168-0.791-1.518-1.231c-0.387-0.498-0.666-1.108-0.836-1.833c-0.18-0.713-0.27-2.07-0.27-4.074
			c0-2.043,0.09-3.425,0.27-4.148c0.17-0.714,0.449-1.314,0.836-1.804c0.35-0.476,0.855-0.903,1.518-1.282
			c0.633-0.359,1.426-0.549,2.381-0.568c1.465,0,2.732,0.602,3.799,1.802v-1.61h2.957v14.838c-0.039,2.285-0.676,3.965-1.912,5.039
			c-1.248,1.104-2.74,1.656-4.479,1.656c-1.992-0.039-3.693-0.887-5.102-2.545l2.297-1.885c0.379,0.363,0.814,0.672,1.305,0.928
			c0.502,0.284,1.021,0.436,1.561,0.456c1.01,0,1.824-0.29,2.438-0.868c0.605-0.589,0.918-1.402,0.936-2.443V82.708z M86.121,76.708
			c0,1.166,0.039,1.969,0.115,2.41c0.064,0.461,0.221,0.843,0.467,1.146c0.199,0.274,0.502,0.524,0.908,0.75
			c0.389,0.273,0.871,0.411,1.449,0.411c0.576,0,1.059-0.138,1.447-0.411c0.387-0.226,0.682-0.476,0.879-0.75
			c0.246-0.304,0.412-0.686,0.498-1.146c0.057-0.441,0.084-1.244,0.084-2.41c0-1.186-0.027-2.01-0.084-2.47
			c-0.086-0.461-0.252-0.833-0.498-1.117c-0.197-0.273-0.492-0.544-0.879-0.809c-0.389-0.225-0.871-0.348-1.447-0.367
			c-0.578,0.02-1.061,0.143-1.449,0.367c-0.406,0.265-0.709,0.535-0.908,0.809c-0.246,0.284-0.402,0.656-0.467,1.117
			C86.16,74.698,86.121,75.522,86.121,76.708z"/>
		<path fill="#005ABB" d="M106.998,82.948h-0.057c-0.273,0.518-0.699,0.898-1.275,1.143c-0.568,0.254-1.352,0.381-2.354,0.381
			c-1.646-0.02-2.912-0.469-3.801-1.348c-0.938-0.859-1.404-1.958-1.404-3.296c0-1.278,0.406-2.339,1.219-3.179
			c0.812-0.858,2.004-1.298,3.574-1.317h4.098v-1.604c0.02-1.345-0.986-1.997-3.021-1.958c-0.738,0-1.318,0.078-1.744,0.236
			c-0.445,0.186-0.795,0.5-1.051,0.941l-2.326-1.833c1.125-1.516,2.783-2.254,4.975-2.215c1.854-0.02,3.332,0.342,4.438,1.084
			c1.105,0.763,1.668,2.071,1.688,3.927v10.386h-2.957V82.948z M106.998,77.848h-3.553c-1.725,0.039-2.578,0.65-2.559,1.832
			c0,0.519,0.223,0.958,0.668,1.32c0.428,0.4,1.133,0.601,2.119,0.601c1.24,0.02,2.117-0.132,2.629-0.454
			c0.463-0.322,0.695-1.056,0.695-2.199V77.848z"/>
		<path fill="#005ABB" d="M114.352,62.938h2.957v3.045h-2.957V62.938z M114.352,69.09h2.957v15.205h-2.957V69.09z"/>
		<path fill="#005ABB" d="M121.457,69.09h2.957v1.61h0.055c0.975-1.2,2.25-1.802,3.828-1.802c1.219,0,2.334,0.445,3.346,1.333
			c1.002,0.898,1.527,2.217,1.574,3.955v10.108h-2.957v-9.064c0-1.065-0.273-1.878-0.822-2.435
			c-0.539-0.568-1.234-0.852-2.086-0.852s-1.553,0.283-2.102,0.852c-0.559,0.557-0.838,1.369-0.838,2.435v9.064h-2.955V69.09z"/>
	</g>
	<g>
		<g>
			
				<linearGradient id="SVGID_1_" gradientUnits="userSpaceOnUse" x1="-9.5479" y1="229.7456" x2="12.026" y2="208.1717" gradientTransform="matrix(0.8494 0.5277 -0.5277 0.8494 182.5179 -155.2011)">
				<stop  offset="0" style="stop-color:#005ABB"/>
				<stop  offset="0.4765" style="stop-color:#025BBC"/>
				<stop  offset="0.6481" style="stop-color:#095FBE"/>
				<stop  offset="0.7705" style="stop-color:#1467C1"/>
				<stop  offset="0.8694" style="stop-color:#2571C6"/>
				<stop  offset="0.9531" style="stop-color:#3B7ECC"/>
				<stop  offset="1" style="stop-color:#4B88D1"/>
			</linearGradient>
			<path fill="url(#SVGID_1_)" d="M70.113,33.156c1.107,0.657,1.631,2.15,1.631,2.15l1.868,6.996
				c0.556,1.952,2.056,2.381,2.056,2.381c1.896,0.86,3.861-0.727,3.861-0.727c0.904-0.543,1.455-1.936,1.455-1.936
				c2.93-11.465,1.566-15.437,1.566-15.437c-0.045-0.419-0.586-0.749-0.586-0.749l-15.089-9.374c0,0-0.536-0.34-0.933-0.194
				c0,0-4.162,0.538-13.149,8.243c0,0-1.006,1.111-1.092,2.163c0,0-0.554,2.466,1.06,3.783c0,0,1.049,1.157,3.046,0.788l7.104-1.426
				c0,0,1.57-0.191,2.648,0.51L70.113,33.156z"/>
			<path fill="#4B88D1" d="M68.398,23.325l-1.452-0.902l0.902-1.453c0.133-0.214,0.066-0.496-0.146-0.628l-1.355-0.842
				c-0.214-0.133-0.495-0.067-0.628,0.147l-0.902,1.453l-1.453-0.902c-0.214-0.133-0.494-0.068-0.628,0.146l-0.843,1.356
				c-0.132,0.213-0.066,0.494,0.146,0.627l1.453,0.903l-0.903,1.453c-0.132,0.213-0.065,0.495,0.148,0.628l1.355,0.842
				c0.214,0.132,0.494,0.067,0.628-0.146l0.902-1.453l1.452,0.902c0.214,0.133,0.495,0.067,0.628-0.146l0.842-1.356
				C68.678,23.739,68.612,23.457,68.398,23.325z"/>
			<g>
				<circle fill="none" stroke="#4B88D1" stroke-width="0.4252" stroke-miterlimit="10" cx="75.249" cy="29.057" r="1.14"/>
				<circle fill="none" stroke="#4B88D1" stroke-width="0.4252" stroke-miterlimit="10" cx="78.927" cy="31.343" r="1.139"/>
				<circle fill="none" stroke="#4B88D1" stroke-width="0.4252" stroke-miterlimit="10" cx="75.945" cy="32.039" r="1.14"/>
				<circle fill="none" stroke="#4B88D1" stroke-width="0.4252" stroke-miterlimit="10" cx="78.23" cy="28.36" r="1.14"/>
			</g>
		</g>
		<g>
			<linearGradient id="SVGID_2_" gradientUnits="userSpaceOnUse" x1="84.0381" y1="36.7266" x2="35.7886" y2="36.7266">
				<stop  offset="0" style="stop-color:#FF5A00"/>
				<stop  offset="0.2461" style="stop-color:#FF5C03"/>
				<stop  offset="0.4423" style="stop-color:#FF640D"/>
				<stop  offset="0.6212" style="stop-color:#FF701E"/>
				<stop  offset="0.7899" style="stop-color:#FF8236"/>
				<stop  offset="0.9499" style="stop-color:#FF9954"/>
				<stop  offset="1" style="stop-color:#FFA15F"/>
			</linearGradient>
			<path fill="url(#SVGID_2_)" d="M81.479,56.451c2.227-1.132,3.188-3.73,2.129-5.822c-1.053-2.086-3.719-2.867-5.949-1.744
				l0.002-0.015c-6.983,3.843-15.836,3.631-22.763-1.292c-7.852-5.58-10.798-15.475-7.936-24.165l2.964,2.107l-2.038-12.091
				l-12.1,2.035l4.021,2.862c-5.446,12.677-1.547,27.855,10.16,36.177C59.555,61.315,71.766,61.656,81.479,56.451z"/>
			<linearGradient id="SVGID_3_" gradientUnits="userSpaceOnUse" x1="98.5605" y1="23.3052" x2="50.3159" y2="23.3052">
				<stop  offset="0" style="stop-color:#FF5A00"/>
				<stop  offset="0.2461" style="stop-color:#FF5C03"/>
				<stop  offset="0.4423" style="stop-color:#FF640D"/>
				<stop  offset="0.6212" style="stop-color:#FF701E"/>
				<stop  offset="0.7899" style="stop-color:#FF8236"/>
				<stop  offset="0.9499" style="stop-color:#FF9954"/>
				<stop  offset="1" style="stop-color:#FFA15F"/>
			</linearGradient>
			<path fill="url(#SVGID_3_)" d="M52.868,3.575c-2.23,1.127-3.178,3.737-2.119,5.829c1.05,2.09,3.716,2.87,5.947,1.742
				l-0.003,0.017c6.978-3.846,15.832-3.636,22.764,1.293c7.848,5.582,10.797,15.478,7.928,24.169l-2.963-2.105l2.047,12.092
				l12.092-2.042l-4.021-2.858c5.455-12.672,1.547-27.861-10.154-36.183C74.797-1.291,62.578-1.634,52.868,3.575z"/>
		</g>
	</g>
</g>
</svg>
