<svg width="800" height="570" xmlns="http://www.w3.org/2000/svg">
 <g>
  <title>Layer 1</title>
  <g id="svg_140">
   <path fill="#005ABB" d="m5.133993,433.307953h17.659555v54.149689c0,6.129913 1.666359,10.920471 5.000105,14.36142c3.28046,3.453247 7.467806,5.174255 12.557924,5.174255s9.242279,-1.721008 12.462147,-5.174255c3.27964,-3.440948 4.91658,-8.231506 4.91658,-14.36142v-54.149689h17.659657v90.837555h-17.665318v-9.721008h-0.334732c-5.818626,7.175049 -13.411621,10.771301 -22.779194,10.771301c-7.28285,-0.119324 -13.860126,-2.860779 -19.732759,-8.213989c-6.380799,-5.239075 -9.630195,-12.988129 -9.743966,-23.233795v-60.440063l0,0l0,0l0,0z" id="svg_141"/>
   <path fill="#FF5A00" d="m101.395813,433.307953h17.659355v9.445313c5.872734,-6.762543 13.441765,-10.299133 22.708107,-10.586121c10.788803,0.292114 18.662308,4.258698 23.632889,11.905945c2.425644,2.861755 4.085922,6.613373 4.989105,11.285614c0.847641,4.606415 1.266312,12.432617 1.266312,23.460083c0,10.735321 -0.418671,18.437042 -1.272476,23.102112c-0.897018,4.666107 -2.568619,8.483521 -4.99527,11.458435c-2.424591,3.50061 -5.620712,6.302734 -9.569809,8.399231c-3.895615,2.157104 -8.591537,3.304077 -14.06308,3.417236c-4.516953,0 -8.560699,-1.01532 -12.109634,-3.045898c-3.84108,-1.865051 -7.366371,-4.4151 -10.586143,-7.665771v46.419189h-17.659355v-127.595367l0,0l0,0l0,0l0,0l0,0l0,0l0,0l0,0l0,0zm35.037872,73.690491c4.187759,0 7.491882,-0.823944 9.923676,-2.455444c2.430786,-1.702454 4.151749,-3.858582 5.173248,-6.499176c1.123306,-2.753784 1.887619,-5.800751 2.287781,-9.134705c0.114166,-3.279449 0.167664,-6.637024 0.167664,-10.090332c0,-3.626099 -0.059662,-7.175018 -0.167664,-10.627289c-0.393997,-3.44812 -1.159317,-6.495087 -2.287781,-9.12851c-1.0215,-2.754822 -2.742462,-4.918121 -5.173248,-6.500214c-2.431793,-1.457642 -5.735916,-2.193146 -9.923676,-2.193146c-3.955276,0 -7.096863,0.854828 -9.403152,2.545959c-2.437988,1.702454 -4.217598,3.924408 -5.347084,6.673035c-1.074966,2.753784 -1.785789,5.740051 -2.121147,8.954681c-0.340485,3.398743 -0.507133,6.8284 -0.507133,10.281677c0,3.219757 0.166649,6.439545 0.507133,9.654144c0.3405,3.398743 1.052353,6.470398 2.121147,9.224182c1.123314,2.748627 2.903969,4.970581 5.347084,6.673035c2.312469,1.744659 5.447876,2.622101 9.403152,2.622101l0,0l0,0l0,0l0,0l0,0l0,0l0,0z" id="svg_142"/>
   <path fill="#FF5A00" d="m194.418839,396.554962h17.659561v104.224884c0,4.146118 2.210434,6.219116 6.625336,6.219116h6.123489v17.145874h-7.873932c-6.434143,0 -11.745148,-1.654907 -15.921097,-4.97052c-4.408936,-3.369385 -6.607422,-9.038971 -6.607422,-17.002441v-105.616913l-0.005936,0l0,0z" id="svg_143"/>
   <path fill="#FF5A00" d="m286.832886,516.098145h-0.340485c-1.636627,3.094299 -4.18158,5.363525 -7.623566,6.82843c-3.386383,1.517273 -8.076172,2.276428 -14.06308,2.276428c-9.83316,-0.120361 -17.395996,-2.803162 -22.707077,-8.054565c-5.598068,-5.131042 -8.387863,-11.697144 -8.387863,-19.689941c0,-7.634857 2.425613,-13.973602 7.282043,-18.992523c4.857422,-5.125916 11.978989,-7.754211 21.352295,-7.867371h24.487732v-9.58316c0.119324,-8.035034 -5.896393,-11.929626 -18.054352,-11.697113c-4.40274,0 -7.873535,0.465973 -10.418488,1.410309c-2.658096,1.110962 -4.74939,2.987274 -6.279037,5.621735l-13.895432,-10.950317c6.720367,-9.057526 16.625534,-13.465424 29.726807,-13.23291c11.070648,-0.120361 19.899811,2.042938 26.508057,6.475494c6.607208,4.559143 9.964813,12.372986 10.084137,23.461121v62.046936h-17.659332v-8.052551l-0.01236,0l0,0l0,0l0,0l0,0zm0,-30.468475h-21.231964c-10.305298,0.232513 -15.396271,3.883301 -15.282059,10.944183c0,3.10141 1.332123,5.723541 3.991287,7.885803c2.551117,2.389618 6.761505,3.591156 12.65274,3.591156c7.407562,0.119293 12.646606,-0.789032 15.705902,-2.712646c2.772308,-1.923645 4.157928,-6.308899 4.157928,-13.137268v-6.571228l0.006165,0z" id="svg_144"/>
   <path fill="#FF5A00" d="m316.500458,433.307617h18.71701l20.837891,63.624603h0.340485l20.748169,-63.624603h18.800598l-37.858032,109.649292c-2.425568,6.828735 -5.789032,11.554565 -10.084442,14.177002c-4.349152,2.50946 -9.259888,3.769897 -14.73819,3.769897h-5.848663v-17.145508h5.167603c2.317993,0 4.456635,-0.645813 6.440155,-1.929993c1.971466,-1.343933 3.357483,-3.327942 4.146057,-5.962646l4.827087,-15.251587l-31.495728,-87.306458l0,0l0,0l0,0l0,0l0,0l0,0z" id="svg_145"/>
   <path fill="#005ABB" d="m454.951202,516.097717h-0.340515c-1.6427,3.094666 -4.175873,5.36438 -7.629028,6.828613c-3.381195,1.517456 -8.08252,2.276184 -14.063141,2.276184c-9.827515,-0.119446 -17.39679,-2.80249 -22.707916,-8.053833c-5.591461,-5.131104 -8.381378,-11.696899 -8.381378,-19.690247c0,-7.634674 2.425476,-13.973816 7.288696,-18.991974c4.851074,-5.126129 11.971893,-7.754272 21.345154,-7.868011h24.493805v-9.582794c0.119537,-8.035065 -5.902069,-11.930206 -18.053192,-11.696899c-4.409149,0 -7.886078,0.465668 -10.430695,1.409454c-2.65274,1.11145 -4.743927,2.987427 -6.26712,5.622101l-13.902069,-10.950409c6.714996,-9.057343 16.625946,-13.465668 29.727386,-13.233215c11.069946,-0.119507 19.911987,2.042969 26.513031,6.4758c6.601807,4.558929 9.964996,12.372986 10.073059,23.460907v62.047363h-17.653839v-8.05304l-0.012238,0l0,0l0,0l0,0l0,0l0,0l0,0zm0,-30.467865h-21.232208c-10.311218,0.232391 -15.401337,3.882874 -15.287598,10.943878c0,3.101288 1.332489,5.723663 3.990906,7.886047c2.544647,2.390015 6.76886,3.590668 12.647156,3.590668c7.413788,0.119476 12.652893,-0.788177 15.711548,-2.712494c2.777954,-1.92337 4.164459,-6.308807 4.164459,-13.136566v-6.571533l0.005737,0l0,0z" id="svg_146"/>
   <path fill="#005ABB" d="m547.795532,514.663818c-5.812866,6.792603 -13.382141,10.30542 -22.695862,10.538391c-5.705261,-0.119568 -10.44281,-1.374084 -14.224396,-3.769775c-3.954865,-2.276062 -6.977753,-4.725403 -9.068756,-7.354065c-2.312012,-2.975098 -3.97876,-6.619385 -4.994354,-10.950653c-1.075378,-4.259552 -1.613068,-12.366455 -1.613068,-24.338593c0,-12.205322 0.537689,-20.461517 1.613068,-24.780823c1.015594,-4.265533 2.682343,-7.849884 4.994354,-10.777344c2.091003,-2.843781 5.10788,-5.394623 9.068756,-7.658844c3.781586,-2.144684 8.519135,-3.279785 14.224396,-3.393311c8.752258,0 16.321411,3.596405 22.695862,10.765381v-9.618378h17.665527v88.644348c-0.233032,13.65094 -4.038513,23.6875 -11.422485,30.10376c-7.455811,6.595459 -16.369263,9.893188 -26.758362,9.893188c-11.900452,-0.232971 -22.062408,-5.299194 -30.480072,-15.204224l13.722717,-11.261169c2.264191,2.168518 4.863007,4.014587 7.796234,5.543945c2.998962,1.696594 6.099548,2.604675 9.325684,2.724243c6.033875,0 10.896729,-1.732605 14.56488,-5.185608c3.614319,-3.518677 5.484375,-8.375793 5.591858,-14.594849v-9.325623l-0.005981,0l0,0l0,0l0,0l0,0l0,0zm-34.936768,-35.844818c0,6.96582 0.233032,11.763031 0.686951,14.397644c0.382385,2.754028 1.320374,5.036163 2.789978,6.846375c1.188904,1.636902 2.999023,3.130371 5.4245,4.480591c2.323975,1.63092 5.20343,2.455353 8.656494,2.455353c3.441162,0 6.326599,-0.824432 8.644714,-2.455353c2.311951,-1.35022 4.074341,-2.843689 5.251099,-4.480591c1.469727,-1.816132 2.461487,-4.098267 2.97522,-6.846375c0.340576,-2.634613 0.50177,-7.431824 0.50177,-14.397644c0,-7.085388 -0.161194,-12.008118 -0.50177,-14.756195c-0.513733,-2.75412 -1.505493,-4.97644 -2.97522,-6.673157c-1.176758,-1.63089 -2.939148,-3.249969 -5.251099,-4.833038c-2.324097,-1.344177 -5.203552,-2.078979 -8.644714,-2.192474c-3.453064,0.119415 -6.338562,0.854218 -8.656494,2.192474c-2.425476,1.583069 -4.235596,3.196167 -5.4245,4.833038c-1.469604,1.696716 -2.40155,3.919037 -2.789978,6.673157c-0.453918,2.748077 -0.686951,7.670807 -0.686951,14.756195z" id="svg_147"/>
   <path fill="#005ABB" d="m637.580994,516.097656h-0.340576c-1.630981,3.094604 -4.175903,5.364746 -7.617004,6.828369c-3.393311,1.517395 -8.077087,2.276184 -14.063232,2.276184c-9.833374,-0.119568 -17.396606,-2.80188 -22.707703,-8.053162c-5.60376,-5.131775 -8.387634,-11.697327 -8.387634,-19.690796c0,-7.634949 2.425415,-13.97345 7.28241,-18.991852c4.851013,-5.125763 11.97229,-7.754333 21.351624,-7.867828h24.482117v-9.582642c0.119385,-8.035187 -5.890564,-11.930328 -18.048035,-11.697388c-4.408875,0 -7.87384,0.466064 -10.418884,1.409973c-2.658386,1.111145 -4.74939,2.987061 -6.278809,5.621643l-13.895874,-10.950562c6.720947,-9.056854 16.626099,-13.465729 29.721436,-13.232819c11.076111,-0.119446 19.905823,2.043213 26.513245,6.476013c6.60144,4.558258 9.964844,12.372467 10.084351,23.46051v62.047455h-17.665527v-8.053101l-0.011902,0l0,0l0,0l0,0l0,0l0,0zm0,-30.46817h-21.226135c-10.30542,0.232941 -15.401489,3.88324 -15.287903,10.944611c0,3.100616 1.332275,5.723297 3.990723,7.885864c2.556946,2.389709 6.768677,3.590454 12.659241,3.590454c7.407959,0.119476 12.647278,-0.788544 15.705994,-2.712189c2.766052,-1.923706 4.152039,-6.308807 4.152039,-13.137207v-6.571533l0.006042,0l0,0l0,0l0,0l0,0l0,0z" id="svg_148"/>
   <path fill="#005ABB" d="m681.514709,396.554962h17.665588v18.191345h-17.665588v-18.191345l0,0zm0,36.752899h17.665588v90.836975h-17.665588v-90.836975l0,0z" id="svg_149"/>
   <path fill="#005ABB" d="m723.96106,433.307861h17.665649v9.618408h0.328491c5.824768,-7.168945 13.441833,-10.76532 22.869141,-10.76532c7.282471,0 13.943542,2.658508 19.98938,7.963531c5.986145,5.364716 9.12262,13.244568 9.40332,23.627655v60.386658h-17.665649v-54.149689c0,-6.362366 -1.630737,-11.219452 -4.910583,-14.547058c-3.220093,-3.39325 -7.372192,-5.090027 -12.462097,-5.090027s-9.277771,1.690674 -12.557739,5.090027c-3.339417,3.327606 -5.006287,8.178619 -5.006287,14.547058v54.149689h-17.653625v-90.830933l0,0z" id="svg_150"/>
  </g>
  <linearGradient transform="translate(9,4) translate(785.217041015625,6.792500019073486) scale(1.0286800861358643) translate(-785.217041015625,-6.792500019073486) " id="SVGID_1_" x1="-1.85232" y1="7.2605" x2="-1.19391" y2="6.52726" gradientTransform="matrix(0.8494 0.5277 -0.5277 0.8494 182.5179 -155.2011)">
   <stop offset="0" stop-color="#005ABB"/>
   <stop offset="0.4765" stop-color="#025BBC"/>
   <stop offset="0.6481" stop-color="#095FBE"/>
   <stop offset="0.7705" stop-color="#1467C1"/>
   <stop offset="0.8694" stop-color="#2571C6"/>
   <stop offset="0.9531" stop-color="#3B7ECC"/>
   <stop offset="1" stop-color="#4B88D1"/>
  </linearGradient>
  <path fill="url(#SVGID_1_)" d="m417.224243,218.632675c6.614441,3.925461 9.743683,12.845154 9.743683,12.845154l11.160156,41.794235c3.321594,11.662109 12.283478,14.224579 12.283478,14.224579c11.326782,5.138275 23.066101,-4.343079 23.066101,-4.343079c5.400543,-3.243439 8.692322,-11.56546 8.692322,-11.56546c17.503998,-68.493637 9.354797,-92.223236 9.354797,-92.223236c-0.268463,-2.502777 -3.50058,-4.474747 -3.50058,-4.474747l-90.144287,-56.001343c0,0 -3.202271,-2.030617 -5.573364,-1.159325c0,0 -24.864227,3.214622 -78.554108,49.244972c0,0 -6.009583,6.637054 -6.523926,12.922287c0,0 -3.309265,14.73172 6.332581,22.600082c0,0 6.266693,6.911713 18.197357,4.707245l42.440247,-8.518494c0,0 9.379517,-1.14183 15.820068,3.046951l27.205475,16.900177l0,0l0,0l0,0l0,0l0,0l0,0l0,0z" id="svg_152"/>
  <path fill="#4B88D1" d="m406.979645,159.90123l-8.674866,-5.389252l5.388214,-8.680008c0.795197,-1.278656 0.393982,-2.962616 -0.872314,-3.751602l-8.094666,-5.030243c-1.278656,-0.794144 -2.957458,-0.401184 -3.751587,0.877457l-5.389282,8.681046l-8.679993,-5.389267c-1.278656,-0.794128 -2.951294,-0.405304 -3.751587,0.873352l-5.036407,8.099823c-0.789001,1.273514 -0.393982,2.952316 0.872284,3.74646l8.679993,5.394394l-5.394379,8.68103c-0.789001,1.272476 -0.387817,2.956436 0.884644,3.751602l8.094727,5.030243c1.278625,0.787979 2.951294,0.400162 3.751587,-0.872314l5.388245,-8.681046l8.674835,5.389252c1.278656,0.794144 2.957458,0.400162 3.751587,-0.872314l5.030243,-8.100845c0.800323,-1.284836 0.406342,-2.968765 -0.871277,-3.757767l0,0l0,0l0,0l0,0l0,0l0,0l0,0z" id="svg_153"/>
  <circle fill="#4b88d1" stroke="#012e60" stroke-width="1.5" stroke-miterlimit="10" cx="447.907785" cy="194.144932" r="6.810531" id="svg_155"/>
  <circle fill="#4b88d1" stroke="#012e60" stroke-width="1.5" stroke-miterlimit="10" cx="469.880689" cy="207.801823" r="6.804554" id="svg_156"/>
  <circle fill="#4b88d1" stroke="#012e60" stroke-width="1.5" stroke-miterlimit="10" cx="452.065792" cy="211.95983" r="6.810531" id="svg_157"/>
  <circle fill="#4b88d1" stroke="#012e60" stroke-width="1.5" stroke-miterlimit="10" cx="465.716716" cy="189.980948" r="6.810531" id="svg_158"/>
  <g id="svg_159">
   <linearGradient transform="translate(9,4) translate(785.217041015625,6.792500019073486) scale(1.0286800861358643) translate(-785.217041015625,-6.792500019073486) " id="SVGID_2_" x1="0.9875" y1="0.48308" x2="0.02834" y2="0.48308">
    <stop offset="0" stop-color="#FF5A00"/>
    <stop offset="0.2461" stop-color="#FF5C03"/>
    <stop offset="0.4423" stop-color="#FF640D"/>
    <stop offset="0.6212" stop-color="#FF701E"/>
    <stop offset="0.7899" stop-color="#FF8236"/>
    <stop offset="0.9499" stop-color="#FF9954"/>
    <stop offset="1" stop-color="#FFA15F"/>
   </linearGradient>
   <path fill="url(#SVGID_2_)" d="m485.126892,357.800385c13.304413,-6.762299 19.045227,-22.283173 12.719177,-34.781342c-6.290802,-12.462158 -22.218445,-17.127502 -35.540833,-10.418457l0.012268,-0.089996c-41.717102,22.958344 -94.606537,21.692139 -135.989746,-7.718292c-46.908691,-33.335876 -64.508514,-92.449783 -47.410461,-144.365204l17.707062,12.587418l-12.174927,-72.233345l-72.287384,12.156906l24.022415,17.098045c-32.535446,75.734802 -9.242279,166.410141 60.696854,216.12709c57.26825,40.69577 130.218597,42.732849 188.245575,11.637177l0,0l0,0z" id="svg_160"/>
   <linearGradient transform="translate(9,4) translate(785.217041015625,6.792500019073486) scale(1.0286800861358643) translate(-785.217041015625,-6.792500019073486) " id="SVGID_3_" x1="0.97148" y1="0.51692" x2="0.01244" y2="0.51692">
    <stop offset="0" stop-color="#FF5A00"/>
    <stop offset="0.2461" stop-color="#FF5C03"/>
    <stop offset="0.4423" stop-color="#FF640D"/>
    <stop offset="0.6212" stop-color="#FF701E"/>
    <stop offset="0.7899" stop-color="#FF8236"/>
    <stop offset="0.9499" stop-color="#FF9954"/>
    <stop offset="1" stop-color="#FFA15F"/>
   </linearGradient>
   <path fill="url(#SVGID_3_)" d="m314.19989,41.911922c-13.322449,6.732819 -18.985291,22.32494 -12.658936,34.822582c6.272888,12.486107 22.199951,17.146034 35.528564,10.40715l-0.017487,0.101845c41.687256,-22.976395 94.582001,-21.721603 135.994598,7.724358c46.885132,33.347755 64.503357,92.468056 47.363464,144.389626l-17.701477,-12.57663l12.228943,72.240082l72.239014,-12.199097l-24.021729,-17.074036c32.588623,-75.703644 9.242676,-166.445564 -60.661224,-216.162621c-57.286194,-40.743963 -130.284393,-42.792683 -188.293732,-11.67326l0,0l0,0l0,0l0,0l0,0l0,0l0,0l0,0z" id="svg_161"/>
  </g>
 </g>
</svg>